<?xml version="1.0" encoding="UTF-8"?>
<!-- Generator: https://ezgif.com/png-to-svg -->
<svg version="1.1" xmlns="http://www.w3.org/2000/svg" width="1099" height="425">
<path d="M0 0 C7.26 0 14.52 0 22 0 C21.53 3.4 21.05 6.81 20.56 10.31 C20.41 11.38 20.27 12.45 20.12 13.55 C20 14.4 19.88 15.24 19.75 16.11 C19.57 17.41 19.57 17.41 19.39 18.73 C19 21 19 21 18 24 C30.54 23.67 43.08 23.34 56 23 C57.32 15.41 58.64 7.82 60 0 C67.26 0 74.52 0 82 0 C81.71 2.47 81.42 4.95 81.12 7.5 C81.04 8.26 80.95 9.02 80.86 9.81 C80.79 10.44 80.71 11.07 80.63 11.72 C80.56 12.35 80.49 12.98 80.41 13.62 C79.81 17.12 78.86 20.55 78 24 C85.26 24 92.52 24 100 24 C99.49 30.78 98.67 36.3 97 43 C89.74 43 82.48 43 75 43 C74.06 49.64 74.06 49.64 73.12 56.28 C72.59 59.99 72.05 63.69 71.42 67.39 C71.02 69.85 70.8 72.2 70.75 74.69 C70.72 75.43 70.7 76.18 70.67 76.95 C71.09 79.59 71.87 80.42 74 82 C79.35 83.07 83.66 83 89 82 C90.46 87.99 91.42 93.86 92 100 C82.53 104.13 70.7 104.79 60.75 101.75 C54.71 99.22 51.65 95.98 48.85 90.18 C47.56 86.86 47.36 83.7 47.44 80.19 C47.44 79.45 47.45 78.71 47.45 77.95 C47.81 66.15 50.68 54.51 53 43 C40.46 43.33 27.92 43.66 15 44 C14.13 49.18 13.27 54.35 12.38 59.69 C12.1 61.31 11.82 62.94 11.53 64.61 C11.32 65.9 11.11 67.19 10.9 68.51 C10.72 69.51 10.72 69.51 10.54 70.53 C9.9 74.62 9.94 77.36 12 81 C15.83 83.29 18.96 83.1 23.31 82.62 C24.38 82.51 25.45 82.4 26.55 82.29 C27.36 82.19 28.17 82.1 29 82 C30.32 88.43 31.25 94.43 31 101 C20.4 104.08 7.12 105.21 -3.05 100.25 C-8.37 96.83 -10.56 92.31 -12.52 86.54 C-13.67 80.46 -12.92 74.49 -11.91 68.44 C-11.8 67.73 -11.68 67.02 -11.56 66.29 C-11.19 63.98 -10.8 61.67 -10.41 59.36 C-10.14 57.74 -9.88 56.12 -9.61 54.5 C-9.05 51.12 -8.49 47.75 -7.93 44.37 C-7.2 40.04 -6.49 35.72 -5.78 31.39 C-5.23 28.05 -4.67 24.72 -4.12 21.38 C-3.86 19.79 -3.59 18.19 -3.33 16.59 C-2.96 14.37 -2.59 12.14 -2.22 9.91 C-2 8.65 -1.79 7.38 -1.58 6.08 C-1 3 -1 3 0 0 Z " fill="#FFFFFF" transform="translate(403,159)"/>
<path d="M0 0 C6.46 -0.05 12.91 -0.09 19.37 -0.11 C21.56 -0.12 23.75 -0.13 25.94 -0.15 C61.16 -0.42 61.16 -0.42 69.75 7.64 C75.32 13.79 76.88 19.78 77 28 C76.24 37.38 72.69 43.82 65.69 50 C64.47 51.01 63.24 52.01 62 53 C62.47 53.36 62.94 53.73 63.43 54.1 C64.05 54.6 64.67 55.11 65.31 55.62 C65.93 56.11 66.54 56.6 67.18 57.1 C71.75 61.86 72.53 66.86 72.44 73.25 C72.43 74 72.43 74.75 72.42 75.52 C72.19 83.69 70 91.17 64 97 C53.32 105.85 41.09 107.61 27.61 107.39 C26.29 107.38 24.98 107.38 23.63 107.37 C20.18 107.36 16.74 107.32 13.29 107.27 C9.76 107.23 6.23 107.22 2.69 107.2 C-4.2 107.15 -11.1 107.08 -18 107 C-12.23 70.2 -12.23 70.2 -9.69 54.69 C-9.45 53.21 -9.45 53.21 -9.21 51.7 C-8.99 50.37 -8.99 50.37 -8.76 49.01 C-8.64 48.25 -8.51 47.49 -8.39 46.71 C-8 45 -8 45 -7 44 C-5.5 43.89 -4 43.85 -2.5 43.84 C-1.54 43.83 -0.58 43.82 0.4 43.81 C1.45 43.8 2.49 43.8 3.57 43.79 C5.77 43.76 7.97 43.73 10.16 43.7 C13.64 43.66 17.12 43.63 20.59 43.6 C23.94 43.57 27.29 43.53 30.63 43.48 C31.67 43.47 32.7 43.47 33.76 43.47 C40.36 43.35 45.56 42.75 50.88 38.5 C53.27 35.31 53.33 31.82 53.29 27.94 C53.12 25.75 53.12 25.75 51.12 23.56 C47.92 21.2 46.12 20.86 42.18 20.79 C41.18 20.77 40.18 20.75 39.15 20.73 C38.07 20.72 36.98 20.7 35.87 20.68 C34.76 20.66 33.65 20.64 32.51 20.62 C28.97 20.56 25.42 20.5 21.88 20.44 C19.48 20.39 17.08 20.35 14.68 20.31 C8.78 20.2 2.89 20.1 -3 20 C-2.51 13.15 -1.64 6.67 0 0 Z M12 62 C11.33 65.58 10.66 69.17 10 72.75 C9.71 74.27 9.71 74.27 9.42 75.83 C9.24 76.81 9.06 77.79 8.88 78.8 C8.62 80.15 8.62 80.15 8.37 81.53 C7.9 84.24 7.9 84.24 8 88 C12.5 88.09 17 88.14 21.5 88.19 C22.77 88.21 24.04 88.24 25.34 88.26 C32.28 88.32 37.76 88.17 44 85 C47.54 81.28 49.15 78.71 49.19 73.62 C49.2 72.85 49.22 72.08 49.23 71.29 C48.96 68.6 48.58 67.2 47 65 C42.53 62.3 39.26 61.64 34.07 61.71 C32.14 61.72 32.14 61.72 30.16 61.74 C28.82 61.76 27.47 61.79 26.12 61.81 C24.76 61.83 23.39 61.84 22.02 61.85 C18.68 61.89 15.34 61.94 12 62 Z " fill="#FFFFFF" transform="translate(230,153)"/>
<path d="M0 0 C6 5.48 10.37 11.19 11.27 19.44 C11.37 22.03 11.36 24.6 11.31 27.19 C11.32 28.06 11.32 28.94 11.32 29.84 C11.28 34.72 10.89 37.27 9 42 C-9.48 42.33 -27.96 42.66 -47 43 C-44.53 50.78 -44.53 50.78 -39 55 C-32.37 57.52 -26.74 57.23 -20 55 C-16.74 53.22 -13.98 51.25 -11 49 C-5.72 51.64 -0.44 54.28 5 57 C0.51 65.99 -6.82 70.36 -16.04 73.75 C-27.58 76.96 -42.27 76.31 -53 71 C-60.79 65.63 -66.03 59.39 -68 50 C-69.33 35.02 -67.75 21.01 -58 9 C-57.5 8.37 -57 7.75 -56.48 7.11 C-43.6 -7.28 -16.15 -11.49 0 0 Z M-42 19 C-44.36 22.22 -44.36 22.22 -45 26 C-33.12 26 -21.24 26 -9 26 C-10.76 17.98 -10.76 17.98 -16 13 C-25.31 7.85 -35.05 12.21 -42 19 Z " fill="#FFFFFF" transform="translate(375,187)"/>
<path d="M0 0 C5.6 4.88 8.43 10.76 9.23 18.12 C9.47 28.35 7.31 38.39 5.56 48.44 C5.23 50.38 4.9 52.32 4.58 54.26 C3.97 57.79 3.37 61.33 2.76 64.86 C2.63 65.57 2.51 66.27 2.39 67 C2 69.01 1.5 71.01 1 73 C-4.61 73 -10.22 73 -16 73 C-16.66 71.68 -17.32 70.36 -18 69 C-19.03 69.62 -20.06 70.24 -21.12 70.88 C-29.75 76.05 -39.46 76.27 -49.18 74.38 C-55.89 72.28 -60.25 68.97 -64 63 C-67 55.69 -66.81 48.56 -64.1 41.24 C-60.65 34.22 -55.3 29.61 -48 27 C-36.85 23.24 -24.98 24.24 -14 28 C-12.77 23.02 -13.34 20.49 -16 16 C-20.75 13.17 -24.54 12.38 -30 13 C-33.37 13.99 -36.69 15.06 -40.01 16.22 C-44.44 17.37 -44.44 17.37 -47 16 C-48.96 13.38 -48.96 13.38 -50.81 10.12 C-51.44 9.06 -52.06 7.99 -52.71 6.88 C-54 4 -54 4 -53 1 C-39.52 -8.52 -13.62 -9.37 0 0 Z M-42 44 C-44.17 46.74 -44 48 -43.81 51.56 C-42.89 55.5 -42.89 55.5 -40 58 C-34.28 59.91 -28.1 59.83 -22.5 57.62 C-20.66 56.43 -18.83 55.22 -17 54 C-16.42 51.34 -16.42 51.34 -16.31 48.38 C-16.25 47.37 -16.18 46.37 -16.11 45.34 C-16.08 44.57 -16.04 43.79 -16 43 C-23.84 38.49 -35.16 37.16 -42 44 Z " fill="#FFFFFF" transform="translate(564,187)"/>
<path d="M0 0 C9.64 -0.07 19.28 -0.12 28.92 -0.16 C33.4 -0.17 37.88 -0.19 42.35 -0.23 C46.68 -0.26 51 -0.28 55.33 -0.28 C56.97 -0.29 58.62 -0.3 60.26 -0.32 C62.58 -0.34 64.89 -0.34 67.21 -0.34 C68.52 -0.35 69.84 -0.35 71.19 -0.36 C76.49 0.14 81.03 1.55 85.38 4.75 C89.31 10.19 89.37 15.85 88.59 22.29 C87.24 28.49 84.21 32.49 78.94 35.94 C73.85 38.91 69.29 39.14 63.48 39.11 C62.35 39.11 62.35 39.11 61.2 39.11 C58.72 39.11 56.24 39.11 53.77 39.1 C52.04 39.1 50.32 39.09 48.6 39.09 C44.08 39.09 39.56 39.08 35.03 39.07 C30.41 39.06 25.79 39.05 21.18 39.05 C12.12 39.04 3.06 39.02 -6 39 C-5.41 30.32 -4.02 21.86 -2.44 13.31 C-2.2 12.03 -1.97 10.74 -1.73 9.42 C-1.16 6.28 -0.58 3.14 0 0 Z " fill="#72BC35" transform="translate(106,154)"/>
<path d="M0 0 C5.67 -0.05 11.35 -0.09 17.02 -0.11 C18.95 -0.12 20.88 -0.13 22.8 -0.15 C25.59 -0.18 28.37 -0.19 31.15 -0.2 C32 -0.21 32.85 -0.22 33.73 -0.23 C41.87 -0.23 49.61 0.52 56 6 C60.24 11.51 59.8 18.38 59 25 C56.98 32.12 53.43 36.12 47.18 39.94 C43.48 41.74 40.23 42.12 36.14 42.11 C35.18 42.11 34.22 42.11 33.23 42.11 C32.2 42.11 31.17 42.1 30.11 42.1 C29.05 42.1 27.99 42.09 26.9 42.09 C23.52 42.09 20.13 42.08 16.75 42.06 C14.46 42.06 12.16 42.05 9.87 42.05 C4.24 42.04 -1.38 42.02 -7 42 C-3.91 19.63 -3.91 19.63 -1.81 9.19 C-1.49 7.55 -1.17 5.91 -0.84 4.27 C-0.56 2.85 -0.28 1.42 0 0 Z " fill="#72BD34" transform="translate(128,218)"/>
<path d="M0 0 C2.64 0 5.28 0 8 0 C6.65 9.14 5.08 18.23 3.38 27.31 C3.03 29.16 3.03 29.16 2.68 31.04 C2.12 34.03 1.56 37.01 1 40 C1.45 39.59 1.9 39.19 2.37 38.77 C11.09 31.09 19.54 28.66 31.12 28.78 C40.95 29.53 48.17 33.6 54.61 40.93 C58.65 46.94 59.53 52.08 59.44 59.19 C59.43 60.02 59.42 60.86 59.41 61.72 C59.1 73.74 55.27 82.57 46.93 91.12 C37.5 100.06 28.35 102.36 15.57 102.2 C5.72 101.64 -0.28 98.19 -7 91 C-7.66 90.01 -8.32 89.02 -9 88 C-9.99 92.29 -10.98 96.58 -12 101 C-14.64 101 -17.28 101 -20 101 C-16.4 81.23 -12.59 61.51 -8.7 41.79 C-7.89 37.74 -7.1 33.68 -6.3 29.62 C-5.68 26.46 -5.05 23.3 -4.43 20.14 C-4.14 18.64 -3.84 17.14 -3.55 15.64 C-3.14 13.57 -2.73 11.5 -2.32 9.43 C-2.09 8.26 -1.86 7.08 -1.62 5.87 C-1 3 -1 3 0 0 Z M2.19 47.75 C-4.32 55.73 -6.31 64.81 -6 75 C-4.97 81.56 -1.94 86.59 3 91 C10.28 95.45 18.54 96.26 26.81 94.35 C36.99 91.04 44.14 84.54 49 75 C51.81 66.9 53.05 55.49 49.5 47.38 C45.97 41.77 40.77 38.18 34.38 36.62 C21.36 34.45 11.24 38.22 2.19 47.75 Z " fill="#FFFFFF" transform="translate(837,153)"/>
<path d="M0 0 C6.18 5.06 10.37 10.22 11.75 18.25 C12.48 30.79 12.48 30.79 10.75 34.25 C-9.38 34.25 -29.51 34.25 -50.25 34.25 C-49.15 45.5 -49.15 45.5 -44.25 54.25 C-36.4 59.87 -28.74 60.96 -19.25 60.25 C-13.1 59.05 -8.23 57.01 -3.25 53.25 C-2.26 52.59 -1.27 51.93 -0.25 51.25 C1.07 53.23 2.39 55.21 3.75 57.25 C-5.62 66.21 -15.63 68.68 -28.35 68.46 C-37.32 67.98 -44.81 65.71 -51.25 59.25 C-57.48 51.86 -58.54 43.74 -58.12 34.31 C-57.02 22.61 -52.68 11.96 -43.88 3.94 C-31.03 -6.25 -14.47 -7.79 0 0 Z M-42.25 13.25 C-45.98 18.04 -47.22 21.08 -48.25 27.25 C-30.76 27.25 -13.27 27.25 4.75 27.25 C3.94 15.68 3.94 15.68 -2.25 7.25 C-15.6 -2 -31.69 1.68 -42.25 13.25 Z " fill="#FFFFFF" transform="translate(965.25,186.75)"/>
<path d="M0 0 C2.64 0 5.28 0 8 0 C11.68 12.94 15.04 25.94 18.25 39 C19.13 42.56 20.01 46.13 20.89 49.69 C21.09 50.5 21.29 51.3 21.49 52.14 C22.45 56.17 22.45 56.17 24 60 C32.24 47.38 40.47 34.75 48.65 22.09 C51.12 18.27 53.59 14.45 56.06 10.62 C56.53 9.9 56.99 9.18 57.47 8.44 C58.12 7.44 58.12 7.44 58.79 6.41 C59.17 5.83 59.55 5.24 59.94 4.63 C60.95 3.08 61.97 1.54 63 0 C65.16 -0.29 65.16 -0.29 67.62 -0.19 C68.44 -0.16 69.26 -0.13 70.1 -0.11 C70.73 -0.07 71.35 -0.04 72 0 C67.97 7.16 63.7 14.07 59.11 20.88 C55.58 26.11 52.12 31.39 48.69 36.69 C48.14 37.53 47.59 38.38 47.03 39.25 C44.81 42.67 42.59 46.08 40.38 49.51 C37.16 54.48 33.94 59.44 30.7 64.4 C29.52 66.2 28.35 68 27.18 69.81 C25.34 72.65 23.48 75.48 21.62 78.31 C21.07 79.18 20.51 80.04 19.93 80.94 C15.74 87.3 10.7 94.85 3.21 97.56 C-3.69 98.93 -11.32 99.21 -17.81 96.25 C-21 94 -21 94 -21.79 92 C-22 90 -22 90 -20.56 87.75 C-20.05 87.17 -19.53 86.6 -19 86 C-14.32 87.82 -14.32 87.82 -12.13 89.05 C-9.66 90.15 -7.83 90.33 -5.12 90.38 C-4.3 90.4 -3.48 90.43 -2.63 90.46 C3.65 89.36 7.17 84.93 10.75 80 C11.51 78.97 12.27 77.94 13.05 76.88 C13.69 75.93 14.34 74.98 15 74 C15.4 73.42 15.8 72.83 16.21 72.23 C17.37 68.95 16.54 66.79 15.67 63.44 C15.5 62.79 15.34 62.14 15.16 61.48 C14.62 59.33 14.05 57.2 13.48 55.06 C13.09 53.57 12.71 52.08 12.32 50.59 C11.31 46.67 10.29 42.76 9.26 38.84 C7.61 32.57 5.99 26.3 4.36 20.03 C3.8 17.83 3.22 15.64 2.64 13.45 C2.29 12.11 1.94 10.77 1.59 9.43 C1.28 8.26 0.98 7.08 0.66 5.88 C0 3 0 3 0 0 Z " fill="#FFFFFF" transform="translate(746,183)"/>
<path d="M0 0 C2.77 2.21 4.74 4.54 6.8 7.43 C6.8 8.09 6.8 8.75 6.8 9.43 C2.41 12.43 2.41 12.43 -0.2 12.43 C-0.92 11.51 -1.65 10.58 -2.39 9.62 C-6.12 4.96 -11.38 3.16 -17.2 2.43 C-25.08 1.61 -33.21 3.89 -39.87 8.13 C-47.39 14.34 -51.43 22.28 -52.98 31.86 C-53.62 39.27 -53.05 45.61 -48.65 51.78 C-44.17 56.89 -38.54 59.02 -31.89 59.66 C-22.5 59.99 -15.03 57.84 -7.99 51.54 C-6.2 50.43 -6.2 50.43 -4.1 50.51 C-1.65 51.7 -1.17 52.95 -0.2 55.43 C-10.04 64.98 -19.04 67.77 -32.62 67.65 C-41.81 67.09 -49.13 63.96 -55.39 57.12 C-60.69 51.09 -61.74 44.92 -61.64 37.18 C-61.63 36.34 -61.63 35.51 -61.62 34.64 C-61.32 23.28 -57.2 13.71 -49.32 5.46 C-36.21 -6.65 -15.34 -10.34 0 0 Z " fill="#FFFFFF" transform="translate(732.203125,187.56640625)"/>
<path d="M0 0 C0.12 5.75 0.12 5.75 -1 8 C-3.01 8.35 -5.03 8.6 -7.06 8.81 C-15.53 10.02 -21.35 13.12 -26.6 19.95 C-32.92 29.23 -34.1 41.28 -36.19 52.06 C-36.72 54.77 -37.25 57.47 -37.79 60.18 C-38.12 61.85 -38.45 63.52 -38.77 65.2 C-39.89 70.89 -39.89 70.89 -41 72 C-43.64 72 -46.28 72 -49 72 C-44.38 48.57 -39.76 25.14 -35 1 C-32.36 1 -29.72 1 -27 1 C-27.33 4.3 -27.66 7.6 -28 11 C-27.03 10.09 -26.06 9.19 -25.06 8.25 C-17.68 1.93 -9.62 -0.23 0 0 Z " fill="#FFFFFF" transform="translate(1038,182)"/>
<path d="M0 0 C22.44 0 44.88 0 68 0 C68 1.98 68 3.96 68 6 C45.23 6 22.46 6 -1 6 C-0.67 4.02 -0.34 2.04 0 0 Z " fill="#FFFFFF" transform="translate(594,253)"/>
</svg>
