<?xml version="1.0" encoding="UTF-8"?>
<svg id="Livello_2" xmlns="http://www.w3.org/2000/svg" viewBox="0 0 1150.7 146.87">
  <defs>
    <style>
      .cls-1 {
        fill: #fff;
      }
    </style>
  </defs>
  <g id="Livello_1-2" data-name="Livello_1">
    <g>
      <g>
        <path class="cls-1" d="M350.16,71.58c3.63-2.78,6.64-6.1,9.01-10,3.7-6.08,5.56-13.04,5.56-20.88s-1.86-14.82-5.56-20.98c-3.71-6.15-8.95-10.98-15.74-14.48-6.79-3.49-14.72-5.25-23.81-5.25h-70.28v146.87h76.58c9.09,0,17.03-1.68,23.81-5.04,6.78-3.36,12.03-8.08,15.74-14.16,3.7-6.08,5.56-13.04,5.56-20.88s-1.86-14.82-5.56-20.98c-3.63-6.02-8.74-10.76-15.31-14.24ZM283.95,30.42h32.1c3.36,0,6.22.6,8.6,1.78,2.38,1.19,4.2,2.83,5.46,4.93,1.26,2.1,1.89,4.55,1.89,7.34s-.63,5.25-1.89,7.34c-1.26,2.1-3.11,3.78-5.56,5.04-2.45,1.26-5.28,1.89-8.5,1.89h-32.1v-28.33ZM333.26,109.53c-1.26,2.1-3.08,3.78-5.45,5.04-2.38,1.26-5.18,1.89-8.39,1.89h-35.45v-28.33h35.45c3.22,0,6.01.6,8.39,1.78,2.38,1.19,4.2,2.83,5.45,4.93,1.26,2.1,1.89,4.55,1.89,7.34s-.63,5.25-1.89,7.34Z"/>
        <polygon class="cls-1" points="443.62 60.47 410.89 0 368.92 0 424.74 96.1 424.74 146.87 460.41 146.87 460.41 96.1 516.22 0 476.35 0 443.62 60.47"/>
        <polygon class="cls-1" points="520.41 31.47 563.42 31.47 563.42 146.87 599.09 146.87 599.09 31.47 642.11 31.47 642.11 0 520.41 0 520.41 31.47"/>
        <polygon class="cls-1" points="654.69 146.87 755.41 146.87 755.41 115.4 690.36 115.4 690.36 89.17 753.31 89.17 753.31 57.7 690.36 57.7 690.36 31.47 755.41 31.47 755.41 0 654.69 0 654.69 146.87"/>
        <path class="cls-1" d="M859.16,79.1c6.92-3.78,12.31-8.88,16.16-15.32,3.85-6.43,5.77-13.57,5.77-21.4s-1.92-15-5.77-21.51c-3.85-6.5-9.23-11.61-16.16-15.32-6.92-3.7-14.72-5.56-23.4-5.56h-58.54v146.87h16.16v-62.11h28.74l42.81,62.11h19.72l-43.2-62.4c6.43-.66,12.34-2.44,17.71-5.37ZM793.38,14.69h42.38c5.59,0,10.56,1.23,14.9,3.67,4.33,2.45,7.73,5.77,10.18,9.97,2.45,4.2,3.67,8.88,3.67,14.06s-1.23,9.69-3.67,13.95c-2.45,4.27-5.84,7.63-10.18,10.07-4.34,2.45-9.3,3.67-14.9,3.67h-42.38V14.69Z"/>
        <polygon class="cls-1" points="958.51 0 894.72 146.87 911.51 146.87 966.9 18.3 1022.29 146.87 1039.5 146.87 975.92 0 958.51 0"/>
        <polygon class="cls-1" points="1132.45 0 1087.34 80.07 1042.23 0 1023.13 0 1078.95 95.89 1078.95 146.87 1095.1 146.87 1095.1 95.89 1150.7 0 1132.45 0"/>
      </g>
      <g>
        <rect class="cls-1" width="118.9" height="16.9"/>
        <rect class="cls-1" x="36.44" y="31.72" width="118.87" height="16.9"/>
        <rect class="cls-1" y="63.45" width="118.9" height="16.9"/>
        <rect class="cls-1" x="36.44" y="95.17" width="118.87" height="16.9"/>
        <rect class="cls-1" y="126.9" width="118.9" height="16.9"/>
      </g>
    </g>
  </g>
</svg>